<svg width="323" height="92" viewBox="0 0 323 92" fill="none" xmlns="http://www.w3.org/2000/svg">
<g clip-path="url(#clip0_2_1014)">
<path d="M79.7775 10.5448C79.7775 11.8796 79.5146 13.2015 79.0037 14.4347C78.4929 15.668 77.7441 16.7885 76.8003 17.7324C75.8564 18.6763 74.7358 19.4251 73.5025 19.9359C72.2693 20.4467 70.9475 20.7097 69.6126 20.7097C68.2777 20.7097 66.9559 20.4467 65.7227 19.9359C64.4894 19.4251 63.3688 18.6763 62.4249 17.7324C61.481 16.7885 60.7323 15.668 60.2214 14.4347C59.7106 13.2015 59.4477 11.8796 59.4477 10.5448C59.4477 7.84888 60.5186 5.2634 62.4249 3.35711C64.3312 1.45082 66.9167 0.379883 69.6126 0.379883C72.3085 0.379883 74.894 1.45082 76.8003 3.35711C78.7065 5.2634 79.7775 7.84888 79.7775 10.5448Z" fill="#E63888"/>
<path d="M20.8856 0.379883V20.7097H0.555847V0.379883H20.8856Z" fill="#7F35B2"/>
<path d="M34.2775 0.379883C28.6303 0.379883 24.1126 4.89761 24.1126 10.5448V20.7097H34.2775C39.9246 20.7097 44.4424 16.1919 44.4424 10.5448C44.4424 4.89761 39.9246 0.379883 34.2775 0.379883Z" fill="#FBD200"/>
<path d="M67.9991 70.8887V81.0536C67.9991 86.7007 63.4814 91.2185 57.8342 91.2185C52.187 91.2185 47.6693 86.7007 47.6693 81.0536V70.8887H67.9991Z" fill="#ACE152"/>
<path d="M0.555847 23.9365V44.2663L10.7207 34.1014L20.8856 44.2663V23.9365H0.555847Z" fill="#00ADE6"/>
<path d="M91.5558 47.4934V67.8232H71.0647C71.0647 56.5289 80.2615 47.4934 91.5558 47.4934Z" fill="#7F35B2"/>
<path d="M47.6693 47.4934V67.8232H67.9991L47.6693 47.4934Z" fill="#00ADE6"/>
<path d="M67.9991 44.2663C56.7048 44.2663 47.6693 35.2308 47.6693 23.9365H67.9991V44.2663Z" fill="#ACE152"/>
<path d="M91.5558 81.0536V70.8887L81.2296 81.0536L71.0647 70.8887V81.0536C71.0647 86.7007 75.5824 91.2185 81.2296 91.2185C86.8768 91.3798 91.5558 86.7007 91.5558 81.0536Z" fill="#FBD200"/>
<path d="M44.4424 28.9385C44.4424 26.1956 42.1835 23.7754 39.2792 23.7754H23.9512V33.9403H39.2792C42.1835 34.1016 44.4424 31.8428 44.4424 28.9385Z" fill="#E63888"/>
<path d="M24.1126 91.3798C35.4069 91.3798 44.4424 82.3444 44.4424 71.05H24.1126V91.3798Z" fill="#7F35B2"/>
<path d="M20.8856 91.3798H10.7207C5.07358 91.3798 0.555847 86.7007 0.555847 81.0536C0.555847 75.4064 5.07358 70.8887 10.7207 70.8887H20.8856V91.3798Z" fill="#E63888"/>
<path d="M34.2775 47.4934H24.1126L34.2775 57.6583L24.1126 67.8232H34.2775C39.9246 67.8232 44.4424 63.3055 44.4424 57.6583C44.4424 52.0111 39.9246 47.4934 34.2775 47.4934Z" fill="#FBD200"/>
<path d="M76.2278 23.9365C73.4849 23.9365 71.0647 26.1954 71.0647 29.0996V44.4277C82.359 44.4277 91.3945 35.3922 91.3945 24.0979H76.2278V23.9365Z" fill="#00ADE6"/>
<path d="M15.8839 67.8232C18.6268 67.8232 21.047 65.5643 21.047 62.66V47.332C9.75266 47.4934 0.555847 56.5288 0.555847 67.8232H15.8839Z" fill="#ACE152"/>
<path d="M108.497 25.0662H118.178V28.1318H112.208V31.1974H117.855V34.263H112.208V40.7169H108.659V25.0662H108.497Z" fill="white"/>
<path d="M121.244 32.0041H119.308V29.2612H124.632V40.7169H121.244V32.0041ZM121.244 25.0662H124.632V27.8091H121.244V25.0662Z" fill="white"/>
<path d="M127.536 29.2612H130.925V29.9066C131.731 29.2612 132.538 28.9385 133.668 28.9385C134.797 28.9385 135.604 29.2612 136.41 29.9066C137.217 30.5519 137.54 31.3587 137.54 32.4881V40.7168H134.152V33.6176C134.152 32.9722 133.99 32.6495 133.829 32.3268C133.668 32.0041 133.184 32.0041 132.538 32.0041C131.893 32.0041 131.57 32.1654 131.247 32.3268C130.925 32.6495 130.925 32.9722 130.925 33.6176V40.7168H127.536V29.2612Z" fill="white"/>
<path d="M141.09 39.9099C140.605 39.4259 140.283 38.7805 140.283 37.9738V23.9365H143.51V37.4897C143.51 37.6511 143.51 37.6511 143.671 37.8124C143.671 37.8124 143.832 37.9738 143.994 37.9738H145.123V40.7167H143.026C142.219 40.7167 141.574 40.394 141.09 39.9099Z" fill="white"/>
<path d="M153.191 39.9101C153.029 39.7488 153.029 39.7488 152.868 39.7488C152.868 39.7488 152.707 39.7488 152.707 39.9101C151.9 40.5555 150.932 40.8782 149.964 40.8782C148.834 40.8782 148.027 40.5555 147.382 39.9101C146.737 39.2647 146.414 38.458 146.414 37.4899C146.414 36.5218 146.737 35.7151 147.543 35.0697C148.35 34.4243 149.157 34.2629 150.448 34.2629H152.384V33.1335C152.384 32.1654 151.738 31.6814 150.448 31.6814C149.641 31.6814 148.673 32.0041 147.543 32.6495L146.575 30.0679C147.866 29.2612 149.157 28.9385 150.609 28.9385C152.223 28.9385 153.352 29.2612 154.159 30.0679C154.965 30.8746 155.288 31.8427 155.288 32.9722V37.4899L156.418 39.2647L153.836 40.8782L153.191 39.9101ZM151.9 37.9739C152.223 37.6512 152.384 37.1672 152.384 36.6832V36.3605C152.384 36.1991 152.384 36.1991 152.223 36.1991H151.9L151.093 36.5218H150.448C150.125 36.5218 149.802 36.5218 149.641 36.6832C149.48 36.8445 149.318 37.0059 149.318 37.3285C149.318 37.6512 149.48 37.8126 149.641 38.1353C149.964 38.2966 150.286 38.458 150.609 38.458C151.093 38.458 151.577 38.2966 151.9 37.9739Z" fill="white"/>
<path d="M158.354 29.2612H161.742V29.9066C162.549 29.2612 163.355 28.9385 164.485 28.9385C165.614 28.9385 166.421 29.2612 167.228 29.9066C168.035 30.5519 168.357 31.3587 168.357 32.4881V40.7168H164.969V33.6176C164.969 32.9722 164.808 32.6495 164.646 32.3268C164.485 32.0041 164.001 32.0041 163.355 32.0041C162.71 32.0041 162.387 32.1654 162.065 32.3268C161.742 32.6495 161.742 32.9722 161.742 33.6176V40.7168H158.354V29.2612Z" fill="white"/>
<path d="M170.777 37.1672C170.777 36.1991 170.616 35.3924 170.616 34.9084C170.616 34.1016 170.616 33.4562 170.777 32.6495C170.939 31.5201 171.262 30.552 172.068 29.9066C172.714 29.2612 173.843 28.9385 175.134 28.9385C175.618 28.9385 176.102 28.9385 176.586 29.0999C177.07 29.2612 177.393 29.4226 177.715 29.5839V23.7754H181.104V40.7169H177.715V40.2328C177.715 40.0715 177.715 39.9101 177.554 39.9101C177.554 39.9101 177.393 39.9101 177.231 40.0715L175.779 40.8782C175.618 40.8782 175.295 41.0396 174.973 41.0396C172.23 40.8782 170.939 39.7488 170.777 37.1672ZM177.07 37.6513C177.393 37.3286 177.554 37.0059 177.554 36.5218V33.2949C177.554 32.8109 177.393 32.4882 177.07 32.1655C176.747 31.8428 176.425 31.8428 175.779 31.8428C175.295 31.8428 174.973 32.0041 174.65 32.1655C174.327 32.3268 174.166 32.6495 174.166 33.1335C174.166 33.9403 174.004 34.5857 174.004 35.0697C174.004 35.5538 174.004 36.1992 174.166 37.0059C174.166 37.3286 174.327 37.6513 174.65 37.974C174.973 38.1353 175.295 38.2967 175.779 38.2967C176.263 38.1353 176.747 37.974 177.07 37.6513Z" fill="white"/>
<path d="M189.978 37.8126H192.075V27.9704H189.978V25.0662H197.723V27.9704H195.625V37.8126H197.723V40.7169H189.978V37.8126Z" fill="white"/>
<path d="M200.143 29.2612H203.531V29.9066C204.338 29.2612 205.145 28.9385 206.274 28.9385C207.403 28.9385 208.21 29.2612 209.017 29.9066C209.824 30.5519 210.146 31.3587 210.146 32.4881V40.7168H206.758V33.6176C206.758 32.9722 206.597 32.6495 206.435 32.3268C206.274 32.0041 205.79 32.0041 205.145 32.0041C204.499 32.0041 204.176 32.1654 203.854 32.3268C203.531 32.6495 203.531 32.9722 203.531 33.6176V40.7168H200.143V29.2612Z" fill="white"/>
<path d="M214.341 39.9099C213.857 39.4259 213.535 38.7805 213.535 37.9737V32.0039H211.921V29.261H213.373C213.535 29.261 213.696 29.261 213.696 29.0996C213.696 28.9383 213.857 28.7769 213.857 28.4542C213.857 28.1315 214.019 27.8088 214.18 27.3248L214.341 26.5181H217.084V29.261H219.02V32.0039H217.084V37.4897C217.084 37.651 217.084 37.651 217.246 37.8124C217.246 37.8124 217.407 37.9737 217.568 37.9737H219.343V40.7166H216.762C215.632 40.7166 214.987 40.394 214.341 39.9099Z" fill="white"/>
<path d="M230.153 35.7151H224.022V36.1991C224.184 37.4899 224.99 38.1353 226.604 38.1353C227.41 38.1353 228.217 37.974 229.185 37.4899L229.992 39.9101C229.024 40.5555 227.895 40.8782 226.604 40.8782C225.152 40.8782 223.861 40.5555 222.893 39.7488C221.925 39.1034 221.279 38.1353 221.118 37.0059C220.957 36.3605 220.957 35.7151 220.957 35.0697C220.957 34.4243 220.957 33.7789 221.118 33.1335C221.279 32.0041 221.763 30.8747 222.57 30.2293C223.377 29.4225 224.506 29.0999 225.797 29.0999C227.41 29.0999 228.54 29.5839 229.347 30.552C230.153 31.5201 230.476 32.8108 230.476 34.747L230.153 35.7151ZM227.572 33.4562C227.41 32.1655 226.926 31.5201 225.797 31.5201C225.313 31.5201 224.829 31.6814 224.506 32.0041C224.184 32.3268 224.022 32.8108 224.022 33.4562H227.572Z" fill="white"/>
<path d="M233.219 32.8108L231.928 30.8747L234.671 29.0999L235.478 30.3906C235.639 30.552 235.639 30.552 235.801 30.552C235.962 30.552 235.962 30.552 236.123 30.3906C237.091 29.5839 238.382 29.0999 239.834 29.0999H240.157V32.0041C238.866 32.0041 237.898 32.1655 237.414 32.6495C236.93 33.1335 236.607 33.7789 236.607 34.5857V40.7169H233.38V32.8108H233.219Z" fill="white"/>
<path d="M241.932 29.2612H245.32V29.9066C246.127 29.2612 246.934 28.9385 248.063 28.9385C249.192 28.9385 249.999 29.2612 250.806 29.9066C251.613 30.5519 251.935 31.3587 251.935 32.4881V40.7168H248.547V33.6176C248.547 32.9722 248.386 32.6495 248.224 32.3268C248.063 32.0041 247.579 32.0041 246.934 32.0041C246.288 32.0041 245.965 32.1654 245.643 32.3268C245.32 32.6495 245.32 32.9722 245.32 33.6176V40.7168H241.932V29.2612Z" fill="white"/>
<path d="M260.648 39.9101C260.487 39.7488 260.487 39.7488 260.325 39.7488C260.325 39.7488 260.164 39.7488 260.164 39.9101C259.357 40.5555 258.389 40.8782 257.421 40.8782C256.292 40.8782 255.485 40.5555 254.84 39.9101C254.194 39.2647 253.871 38.458 253.871 37.4899C253.871 36.5218 254.194 35.7151 255.001 35.0697C255.808 34.4243 256.614 34.2629 257.905 34.2629H259.841V33.1335C259.841 32.1654 259.196 31.6814 257.905 31.6814C257.098 31.6814 256.13 32.0041 255.001 32.6495L254.033 30.0679C255.324 29.2612 256.614 28.9385 258.067 28.9385C259.68 28.9385 260.809 29.2612 261.616 30.0679C262.423 30.8746 262.746 31.8427 262.746 32.9722V37.4899L263.875 39.2647L261.293 40.8782L260.648 39.9101ZM259.357 37.9739C259.68 37.6512 259.841 37.1672 259.841 36.6832V36.3605C259.841 36.1991 259.841 36.1991 259.68 36.1991H259.357L258.551 36.5218H257.905C257.582 36.5218 257.26 36.5218 257.098 36.6832C256.937 36.8445 256.776 37.0059 256.776 37.3285C256.776 37.6512 256.937 37.8126 257.098 38.1353C257.421 38.2966 257.744 38.458 258.067 38.458C258.712 38.458 259.035 38.2966 259.357 37.9739Z" fill="white"/>
<path d="M267.425 39.9099C266.941 39.4259 266.618 38.7805 266.618 37.9737V32.0039H264.843V29.261H266.295C266.457 29.261 266.618 29.261 266.618 29.0996C266.618 28.9383 266.779 28.7769 266.779 28.4542C266.779 28.1315 266.941 27.8088 267.102 27.3248L267.263 26.5181H270.006V29.261H271.942V32.0039H270.006V37.4897C270.006 37.651 270.006 37.651 270.168 37.8124C270.168 37.8124 270.329 37.9737 270.49 37.9737H272.265V40.7166H269.684C268.554 40.7166 267.909 40.394 267.425 39.9099Z" fill="white"/>
<path d="M275.331 32.0041H273.395V29.2612H278.719V40.7169H275.331V32.0041ZM275.331 25.0662H278.719V27.8091H275.331V25.0662Z" fill="white"/>
<path d="M282.753 39.9101C281.946 39.1034 281.301 38.2966 281.301 37.0059C281.139 36.3605 281.139 35.7151 281.139 35.0697C281.139 34.2629 281.139 33.6176 281.301 32.9722C281.462 31.8427 281.946 30.8746 282.914 30.0679C283.721 29.2612 284.85 28.9385 286.302 28.9385C287.754 28.9385 288.884 29.2612 289.691 30.0679C290.497 30.8746 291.143 31.6814 291.304 32.9722C291.465 33.7789 291.465 34.4243 291.465 35.0697C291.465 35.7151 291.465 36.3605 291.304 37.0059C291.143 38.1353 290.659 39.1034 289.691 39.9101C288.884 40.7168 287.754 41.0395 286.302 41.0395C284.85 40.8782 283.721 40.5555 282.753 39.9101ZM287.593 37.6512C287.916 37.3285 288.077 37.0059 288.077 36.5218C288.077 35.8764 288.238 35.3924 288.238 34.9083C288.238 34.5856 288.238 34.1016 288.077 33.4562C288.077 32.9722 287.916 32.4881 287.593 32.1654C287.27 31.8427 286.786 31.6814 286.302 31.6814C285.818 31.6814 285.334 31.8427 285.012 32.1654C284.689 32.4881 284.527 32.9722 284.527 33.4562V34.747C284.527 35.3924 284.527 35.8764 284.689 36.3605C284.689 36.8445 284.85 37.3285 285.173 37.6512C285.496 37.9739 285.98 38.1353 286.464 38.1353C286.786 38.1353 287.27 37.9739 287.593 37.6512Z" fill="white"/>
<path d="M293.886 29.2612H297.274V29.9066C298.081 29.2612 298.887 28.9385 300.017 28.9385C301.146 28.9385 301.953 29.2612 302.76 29.9066C303.567 30.5519 303.889 31.3587 303.889 32.4881V40.7168H300.501V33.6176C300.501 32.9722 300.34 32.6495 300.178 32.3268C300.017 32.0041 299.533 32.0041 298.887 32.0041C298.242 32.0041 297.919 32.1654 297.597 32.3268C297.274 32.6495 297.274 32.9722 297.274 33.6176V40.7168H293.886V29.2612Z" fill="white"/>
<path d="M312.602 39.9101C312.441 39.7488 312.441 39.7488 312.279 39.7488C312.279 39.7488 312.118 39.7488 312.118 39.9101C311.311 40.5555 310.343 40.8782 309.375 40.8782C308.246 40.8782 307.439 40.5555 306.793 39.9101C306.148 39.2647 305.825 38.458 305.825 37.4899C305.825 36.5218 306.148 35.7151 306.955 35.0697C307.762 34.4243 308.568 34.2629 309.859 34.2629H311.795V33.1335C311.795 32.1654 311.15 31.6814 309.859 31.6814C309.052 31.6814 308.084 32.0041 306.955 32.6495L305.987 30.0679C307.277 29.2612 308.568 28.9385 310.02 28.9385C311.634 28.9385 312.763 29.2612 313.57 30.0679C314.377 30.8746 314.699 31.8427 314.699 32.9722V37.4899L315.829 39.2647L313.247 40.8782L312.602 39.9101ZM311.311 37.9739C311.634 37.6512 311.795 37.1672 311.795 36.6832V36.3605C311.795 36.1991 311.795 36.1991 311.634 36.1991H311.311L310.504 36.5218H309.859C309.536 36.5218 309.214 36.5218 309.052 36.6832C308.891 36.8445 308.73 37.0059 308.73 37.3285C308.73 37.6512 308.891 37.8126 309.052 38.1353C309.375 38.2966 309.698 38.458 310.02 38.458C310.666 38.458 310.988 38.2966 311.311 37.9739Z" fill="white"/>
<path d="M318.41 39.9099C317.926 39.4259 317.604 38.7805 317.604 37.9738V23.9365H320.831V37.4897C320.831 37.6511 320.831 37.6511 320.992 37.8124C320.992 37.8124 321.153 37.9738 321.315 37.9738H322.444V40.7167H320.347C319.54 40.7167 318.895 40.394 318.41 39.9099Z" fill="white"/>
<path d="M110.918 67.3392C110.111 67.1778 109.304 66.6938 108.659 66.2098L109.627 63.4668C110.272 63.9509 110.918 64.2736 111.563 64.4349C112.047 64.5963 112.692 64.7576 113.499 64.7576C114.145 64.7576 114.79 64.5963 115.113 64.2736C115.597 63.9509 115.758 63.4668 115.758 62.9828C115.758 62.4988 115.597 62.0147 115.274 61.692C114.951 61.3693 114.467 61.208 113.983 61.0466L113.176 60.8853C111.886 60.7239 110.756 60.2399 110.111 59.5945C109.304 58.7878 108.981 57.8197 108.981 56.5289C108.981 55.0768 109.465 53.786 110.434 52.9793C111.402 52.1725 112.854 51.6885 114.629 51.6885C115.597 51.6885 116.403 51.8498 117.049 52.0112C117.855 52.1725 118.34 52.4952 118.985 52.9793L118.017 55.5608C117.049 55.0768 115.919 54.7541 114.79 54.7541C113.983 54.7541 113.338 54.9154 113.015 55.2381C112.692 55.5608 112.37 55.8835 112.37 56.3676C112.37 57.1743 112.854 57.6583 113.822 57.8197L114.79 57.981C116.242 58.1424 117.371 58.6264 118.178 59.4332C118.985 60.2399 119.308 61.3693 119.308 62.8215C119.308 64.4349 118.824 65.7257 117.855 66.5324C116.887 67.3392 115.597 67.8232 113.66 67.8232C112.531 67.6619 111.724 67.6619 110.918 67.3392Z" fill="white"/>
<path d="M122.535 66.6938C121.728 65.8871 121.082 65.0803 120.921 63.7896C120.76 63.1442 120.76 62.3374 120.76 61.8534C120.76 61.0467 120.76 60.4013 120.921 59.9172C121.082 58.7878 121.567 57.8197 122.535 57.013C123.341 56.3676 124.632 55.8835 125.923 55.8835C126.568 55.8835 127.214 56.0449 127.859 56.2062C128.504 56.3676 128.988 56.6903 129.311 57.013L128.343 59.4332C128.02 59.1105 127.698 58.9491 127.214 58.7878C126.891 58.6265 126.407 58.6264 125.923 58.6264C125.277 58.6264 124.793 58.7878 124.471 59.1105C124.148 59.4332 123.825 59.7559 123.825 60.2399V63.4669C123.825 63.9509 123.987 64.2736 124.471 64.5963C124.793 64.919 125.439 65.0803 125.923 65.0803C126.73 65.0803 127.536 64.919 128.182 64.435L128.988 66.8552C128.02 67.6619 126.891 67.9846 125.6 67.9846C124.632 67.8233 123.503 67.3392 122.535 66.6938Z" fill="white"/>
<path d="M131.57 50.7202H134.797V56.5287C135.604 56.0447 136.572 55.8833 137.54 55.8833C138.669 55.8833 139.476 56.206 140.283 56.8514C141.09 57.4968 141.412 58.3035 141.412 59.433V67.6617H138.024V60.8851C138.024 60.2397 137.863 59.7557 137.701 59.433C137.54 59.1103 137.056 58.9489 136.41 58.9489C135.765 58.9489 135.442 59.1103 135.12 59.433C134.797 59.7557 134.797 60.2397 134.797 60.8851V67.6617H131.57V50.7202Z" fill="white"/>
<path d="M145.446 66.6938C144.639 65.8871 143.994 65.0803 143.994 63.7895C143.832 63.1442 143.832 62.4988 143.832 61.8534C143.832 61.0466 143.832 60.4012 143.994 59.7559C144.155 58.6264 144.639 57.6583 145.607 56.8516C146.414 56.0449 147.543 55.7222 148.996 55.7222C150.448 55.7222 151.577 56.0449 152.384 56.8516C153.191 57.6583 153.836 58.4651 153.997 59.7559C154.159 60.5626 154.159 61.208 154.159 61.8534C154.159 62.4988 154.159 63.1442 153.997 63.7895C153.836 64.919 153.352 65.8871 152.384 66.6938C151.577 67.5005 150.448 67.8232 148.996 67.8232C147.382 67.8232 146.253 67.3392 145.446 66.6938ZM150.125 64.5963C150.448 64.2736 150.609 63.9509 150.609 63.4668C150.609 62.8215 150.77 62.3374 150.77 61.8534C150.77 61.5307 150.77 61.0466 150.609 60.4012C150.609 59.9172 150.448 59.4332 150.125 59.1105C149.802 58.7878 149.318 58.6264 148.834 58.6264C148.35 58.6264 147.866 58.7878 147.543 59.1105C147.221 59.4332 147.059 59.9172 147.059 60.4012V61.692C147.059 62.3374 147.059 62.8215 147.221 63.3055C147.221 63.7895 147.382 64.2736 147.705 64.5963C148.027 64.919 148.512 65.0803 148.996 65.0803C149.48 65.0803 149.802 64.919 150.125 64.5963Z" fill="white"/>
<path d="M157.87 66.6938C157.063 65.8871 156.418 65.0803 156.418 63.7895C156.256 63.1442 156.256 62.4988 156.256 61.8534C156.256 61.0466 156.256 60.4012 156.418 59.7559C156.579 58.6264 157.063 57.6583 158.031 56.8516C158.838 56.0449 159.967 55.7222 161.419 55.7222C162.871 55.7222 164.001 56.0449 164.808 56.8516C165.614 57.6583 166.26 58.4651 166.421 59.7559C166.582 60.5626 166.582 61.208 166.582 61.8534C166.582 62.4988 166.582 63.1442 166.421 63.7895C166.26 64.919 165.776 65.8871 164.808 66.6938C164.001 67.5005 162.871 67.8232 161.419 67.8232C159.967 67.8232 158.838 67.3392 157.87 66.6938ZM162.71 64.5963C163.033 64.2736 163.194 63.9509 163.194 63.4668C163.194 62.8215 163.356 62.3374 163.356 61.8534C163.356 61.5307 163.356 61.0466 163.194 60.4012C163.194 59.9172 163.033 59.4332 162.71 59.1105C162.387 58.7878 161.903 58.6264 161.419 58.6264C160.935 58.6264 160.451 58.7878 160.129 59.1105C159.806 59.4332 159.645 59.9172 159.645 60.4012V61.692C159.645 62.3374 159.645 62.8215 159.806 63.3055C159.806 63.7895 159.967 64.2736 160.29 64.5963C160.613 64.919 161.097 65.0803 161.581 65.0803C161.903 65.0803 162.387 64.919 162.71 64.5963Z" fill="white"/>
<path d="M169.648 66.6936C169.164 66.2096 168.841 65.5642 168.841 64.7575V50.7202H172.068V64.2734C172.068 64.4348 172.068 64.4348 172.23 64.5961C172.23 64.5961 172.391 64.7575 172.552 64.7575H173.682V67.6617H171.584C170.939 67.5004 170.293 67.1777 169.648 66.6936Z" fill="white"/>
<path d="M182.717 51.8499H185.621L188.526 57.3357C188.526 57.497 188.687 57.497 188.687 57.497C188.848 57.497 188.848 57.497 188.848 57.3357L191.753 51.8499H194.657V67.5006H191.269V61.0467L191.591 59.1105V58.9491H191.43C191.43 58.9491 191.269 58.9491 191.269 59.1105L189.171 62.4988H188.042L186.105 59.1105L185.944 58.9491H185.783V59.1105L186.105 61.0467V67.5006H182.717V51.8499Z" fill="white"/>
<path d="M203.854 66.8552C203.692 66.6938 203.692 66.6938 203.531 66.6938C203.531 66.6938 203.37 66.6938 203.37 66.8552C202.563 67.5006 201.595 67.8233 200.627 67.8233C199.497 67.8233 198.691 67.5006 198.045 66.8552C197.4 66.2098 197.077 65.403 197.077 64.435C197.077 63.4669 197.4 62.6601 198.207 62.0147C199.013 61.3694 199.82 61.208 201.111 61.208H203.047V60.0786C203.047 59.1105 202.402 58.6264 201.111 58.6264C200.304 58.6264 199.336 58.9491 198.207 59.5945L197.238 57.013C198.529 56.2062 199.82 55.8835 201.272 55.8835C202.886 55.8835 204.015 56.2062 204.822 57.013C205.629 57.8197 205.951 58.7878 205.951 59.9172V64.435L207.081 66.2098L204.499 67.8233L203.854 66.8552ZM202.563 64.919C202.886 64.5963 203.047 64.1123 203.047 63.6282V63.3055C203.047 63.1442 203.047 63.1442 202.886 63.1442H202.563L201.756 63.4669H201.111C200.788 63.4669 200.465 63.4669 200.304 63.6282C200.143 63.7896 199.981 63.9509 199.981 64.2736C199.981 64.5963 200.143 64.7577 200.304 65.0803C200.627 65.2417 200.949 65.403 201.272 65.403C201.756 65.403 202.24 65.2417 202.563 64.919Z" fill="white"/>
<path d="M209.501 66.6936C209.017 66.2096 208.694 65.5642 208.694 64.7575V50.7202H211.921V64.2734C211.921 64.4348 211.921 64.4348 212.082 64.5961C212.082 64.5961 212.244 64.7575 212.405 64.7575H213.535V67.6617H211.437C210.63 67.5004 209.985 67.1777 209.501 66.6936Z" fill="white"/>
<path d="M215.309 64.1121C215.309 63.144 215.148 62.3372 215.148 61.8532C215.148 61.0465 215.148 60.4011 215.309 59.5943C215.471 58.4649 215.793 57.4968 216.6 56.8514C217.246 56.206 218.375 55.8833 219.666 55.8833C220.15 55.8833 220.634 55.8833 221.118 56.0447C221.602 56.206 221.925 56.3674 222.247 56.5287V50.7202H225.636V67.5004H222.247V67.0163C222.247 66.855 222.247 66.6936 222.086 66.6936C222.086 66.6936 221.925 66.6936 221.763 66.855L220.311 67.6617C220.15 67.6617 219.827 67.823 219.504 67.823C216.923 67.6617 215.471 66.5323 215.309 64.1121ZM221.602 64.5961C221.925 64.2734 222.086 63.9507 222.086 63.4667V60.2397C222.086 59.7557 221.925 59.433 221.602 59.1103C221.279 58.7876 220.957 58.7876 220.311 58.7876C219.827 58.7876 219.504 58.9489 219.182 59.1103C218.859 59.2716 218.698 59.5943 218.698 60.0784C218.698 60.8851 218.536 61.5305 218.536 62.0145C218.536 62.4986 218.536 63.144 218.698 63.9507C218.698 64.2734 218.859 64.5961 219.182 64.9188C219.504 65.0801 219.827 65.2415 220.311 65.2415C220.795 64.9188 221.279 64.7574 221.602 64.5961Z" fill="white"/>
<path d="M229.024 58.9491H227.088V56.2062H232.412V67.6619H229.024V58.9491ZM229.024 51.8499H232.412V54.5928H229.024V51.8499Z" fill="white"/>
<path d="M234.187 56.0447H237.414L238.866 63.144L239.027 64.9188C239.027 65.0801 239.189 65.0801 239.189 65.0801C239.35 65.0801 239.35 65.0801 239.35 64.9188L239.512 63.144L240.964 56.0447H244.191L241.448 67.5003H236.607L234.187 56.0447Z" fill="white"/>
<path d="M254.678 62.6599H248.547V63.144C248.708 64.4348 249.515 65.0801 251.129 65.0801C251.935 65.0801 252.742 64.9188 253.71 64.4348L254.517 66.855C253.549 67.5004 252.419 67.823 251.129 67.823C249.676 67.823 248.386 67.5003 247.418 66.6936C246.449 66.0482 245.804 65.0801 245.643 63.9507C245.481 63.3053 245.481 62.6599 245.481 62.0145C245.481 61.3691 245.481 60.7238 245.643 60.0784C245.804 58.9489 246.288 57.8195 247.095 57.1741C247.902 56.3674 249.031 56.0447 250.322 56.0447C251.935 56.0447 253.065 56.5287 253.871 57.4968C254.678 58.4649 255.001 59.7557 255.001 61.6918L254.678 62.6599ZM252.097 60.4011C251.935 59.1103 251.451 58.4649 250.322 58.4649C249.838 58.4649 249.354 58.6262 249.031 58.9489C248.708 59.2716 248.547 59.7557 248.547 60.4011H252.097Z" fill="white"/>
<path d="M258.873 67.5005C258.228 67.3392 257.582 67.0165 256.776 66.5325L257.744 64.1122C258.389 64.5963 259.035 64.919 259.519 64.919C260.003 65.0803 260.487 65.0803 261.293 65.0803C261.778 65.0803 262.262 64.919 262.423 64.7576C262.746 64.5963 262.746 64.2736 262.746 63.9509C262.746 63.4669 262.423 63.1442 261.777 62.9828H260.648C259.519 62.9828 258.551 62.6601 257.905 62.0147C257.26 61.5307 256.937 60.5626 256.937 59.5945C256.937 58.3037 257.421 57.497 258.228 56.6903C259.035 56.0449 260.164 55.7222 261.455 55.7222C262.262 55.7222 263.068 55.7222 263.714 55.8835C264.359 56.0449 265.004 56.3676 265.488 56.6903L264.52 59.1105C264.036 58.7878 263.552 58.6264 263.068 58.4651C262.584 58.3037 262.1 58.3037 261.455 58.3037C260.971 58.3037 260.487 58.4651 260.164 58.6264C259.841 58.7878 259.68 59.1105 259.68 59.2718C259.68 59.7559 260.003 60.0786 260.648 60.0786H261.939C263.068 60.0786 264.036 60.4012 264.682 61.0466C265.327 61.692 265.65 62.4988 265.65 63.6282C265.65 64.919 265.327 65.8871 264.52 66.5325C263.714 67.1778 262.584 67.5005 261.132 67.5005C260.164 67.8232 259.519 67.6619 258.873 67.5005Z" fill="white"/>
</g>
<defs>
<clipPath id="clip0_2_1014">
<rect width="323" height="91" fill="white" transform="translate(0 0.379883)"/>
</clipPath>
</defs>
</svg>
