<svg width="201" height="56" viewBox="0 0 201 56" fill="none" xmlns="http://www.w3.org/2000/svg">
<g clip-path="url(#clip0_2_1308)">
<path d="M50.2092 6.25532C50.2092 7.07678 50.0474 7.8902 49.7331 8.64913C49.4187 9.40806 48.958 10.0976 48.3771 10.6785C47.7962 11.2594 47.1067 11.7201 46.3477 12.0345C45.5888 12.3488 44.7754 12.5106 43.9539 12.5106C43.1325 12.5106 42.3191 12.3488 41.5601 12.0345C40.8012 11.7201 40.1116 11.2594 39.5307 10.6785C38.9499 10.0976 38.4891 9.40806 38.1748 8.64913C37.8604 7.8902 37.6986 7.07678 37.6986 6.25532C37.6986 4.59631 38.3576 3.00524 39.5307 1.83214C40.7038 0.659041 42.2949 0 43.9539 0C45.6129 0 47.204 0.659041 48.3771 1.83214C49.5502 3.00524 50.2092 4.59631 50.2092 6.25532Z" fill="#E63888"/>
<path d="M13.9681 0V12.5106H1.45746V0H13.9681Z" fill="#7F35B2"/>
<path d="M22.2092 0C18.7341 0 15.9539 2.78014 15.9539 6.25532V12.5106H22.2092C25.6844 12.5106 28.4646 9.7305 28.4646 6.25532C28.4646 2.78014 25.6844 0 22.2092 0Z" fill="#FBD200"/>
<path d="M42.961 43.3901V49.6454C42.961 53.1206 40.1809 55.9007 36.7057 55.9007C33.2305 55.9007 30.4504 53.1206 30.4504 49.6454V43.3901H42.961Z" fill="#ACE152"/>
<path d="M1.45746 14.4965V27.0071L7.71278 20.7518L13.9681 27.0071V14.4965H1.45746Z" fill="#00ADE6"/>
<path d="M57.4575 28.9929V41.5035H44.8475C44.8475 34.5532 50.5071 28.9929 57.4575 28.9929Z" fill="#7F35B2"/>
<path d="M30.4504 28.9929V41.5035H42.961L30.4504 28.9929Z" fill="#00ADE6"/>
<path d="M42.961 27.0071C36.0107 27.0071 30.4504 21.4468 30.4504 14.4965H42.961V27.0071Z" fill="#ACE152"/>
<path d="M57.4575 49.6454V43.3901L51.1029 49.6454L44.8475 43.3901V49.6454C44.8475 53.1206 47.6277 55.9007 51.1029 55.9007C54.578 56 57.4575 53.1206 57.4575 49.6454Z" fill="#FBD200"/>
<path d="M28.4645 17.5745C28.4645 15.8865 27.0745 14.3972 25.2872 14.3972H15.8546V20.6525H25.2872C27.0745 20.7518 28.4645 19.3617 28.4645 17.5745Z" fill="#E63888"/>
<path d="M15.9539 56C22.9043 56 28.4646 50.4397 28.4646 43.4894H15.9539V56Z" fill="#7F35B2"/>
<path d="M13.9681 56H7.71278C4.2376 56 1.45746 53.1206 1.45746 49.6454C1.45746 46.1702 4.2376 43.3901 7.71278 43.3901H13.9681V56Z" fill="#E63888"/>
<path d="M22.2092 28.9929H15.9539L22.2092 35.2482L15.9539 41.5035H22.2092C25.6844 41.5035 28.4646 38.7234 28.4646 35.2482C28.4646 31.773 25.6844 28.9929 22.2092 28.9929Z" fill="#FBD200"/>
<path d="M48.0248 14.4965C46.3369 14.4965 44.8475 15.8865 44.8475 17.6738V27.1064C51.7979 27.1064 57.3582 21.5461 57.3582 14.5958H48.0248V14.4965Z" fill="#00ADE6"/>
<path d="M10.8901 41.5035C12.578 41.5035 14.0674 40.1135 14.0674 38.3262V28.8936C7.11703 28.9929 1.45746 34.5532 1.45746 41.5035H10.8901Z" fill="#ACE152"/>
<path d="M67.883 15.1915H73.8404V17.078H70.1667V18.9645H73.6419V20.8511H70.1667V24.8227H67.9823V15.1915H67.883Z" fill="white"/>
<path d="M75.727 19.461H74.5355V17.7731H77.8121V24.8227H75.727V19.461ZM75.727 15.1915H77.8121V16.8794H75.727V15.1915Z" fill="white"/>
<path d="M79.5993 17.773H81.6844V18.1702C82.1809 17.773 82.6773 17.5745 83.3724 17.5745C84.0674 17.5745 84.5638 17.773 85.0603 18.1702C85.5568 18.5674 85.7553 19.0638 85.7553 19.7589V24.8227H83.6702V20.4539C83.6702 20.0567 83.5709 19.8581 83.4716 19.6596C83.3724 19.461 83.0745 19.461 82.6773 19.461C82.2802 19.461 82.0816 19.5603 81.883 19.6596C81.6844 19.8581 81.6844 20.0567 81.6844 20.4539V24.8227H79.5993V17.773Z" fill="white"/>
<path d="M87.9397 24.3262C87.6418 24.0284 87.4433 23.6312 87.4433 23.1348V14.4965H89.4291V22.8369C89.4291 22.9362 89.4291 22.9362 89.5284 23.0355C89.5284 23.0355 89.6277 23.1348 89.727 23.1348H90.422V24.8227H89.1312C88.6348 24.8227 88.2376 24.6241 87.9397 24.3262Z" fill="white"/>
<path d="M95.3865 24.3262C95.2872 24.2269 95.2872 24.2269 95.1879 24.2269C95.1879 24.2269 95.0887 24.2269 95.0887 24.3262C94.5922 24.7234 93.9964 24.922 93.4007 24.922C92.7057 24.922 92.2092 24.7234 91.8121 24.3262C91.4149 23.9291 91.2163 23.4326 91.2163 22.8369C91.2163 22.2411 91.4149 21.7447 91.9113 21.3475C92.4078 20.9503 92.9043 20.8511 93.6986 20.8511H94.8901V20.156C94.8901 19.5603 94.4929 19.2624 93.6986 19.2624C93.2021 19.2624 92.6064 19.461 91.9113 19.8582L91.3156 18.2695C92.1099 17.773 92.9043 17.5745 93.7979 17.5745C94.7908 17.5745 95.4858 17.773 95.9823 18.2695C96.4787 18.766 96.6773 19.3617 96.6773 20.0567V22.8369L97.3723 23.9291L95.7837 24.922L95.3865 24.3262ZM94.5922 23.1347C94.7908 22.9362 94.8901 22.6383 94.8901 22.3404V22.1418C94.8901 22.0425 94.8901 22.0425 94.7908 22.0425H94.5922L94.0957 22.2411H93.6986C93.5 22.2411 93.3014 22.2411 93.2021 22.3404C93.1028 22.4397 93.0035 22.539 93.0035 22.7376C93.0035 22.9362 93.1028 23.0355 93.2021 23.234C93.4007 23.3333 93.5993 23.4326 93.7979 23.4326C94.0957 23.4326 94.3936 23.3333 94.5922 23.1347Z" fill="white"/>
<path d="M98.5638 17.773H100.649V18.1702C101.145 17.773 101.642 17.5745 102.337 17.5745C103.032 17.5745 103.528 17.773 104.025 18.1702C104.521 18.5674 104.72 19.0638 104.72 19.7589V24.8227H102.635V20.4539C102.635 20.0567 102.535 19.8581 102.436 19.6596C102.337 19.461 102.039 19.461 101.642 19.461C101.245 19.461 101.046 19.5603 100.848 19.6596C100.649 19.8581 100.649 20.0567 100.649 20.4539V24.8227H98.5638V17.773Z" fill="white"/>
<path d="M106.209 22.6383C106.209 22.0425 106.11 21.5461 106.11 21.2482C106.11 20.7518 106.11 20.3546 106.209 19.8581C106.309 19.1631 106.507 18.5674 107.004 18.1702C107.401 17.773 108.096 17.5745 108.89 17.5745C109.188 17.5745 109.486 17.5745 109.784 17.6738C110.082 17.773 110.28 17.8723 110.479 17.9716V14.3972H112.564V24.8227H110.479V24.5248C110.479 24.4255 110.479 24.3262 110.379 24.3262C110.379 24.3262 110.28 24.3262 110.181 24.4255L109.287 24.922C109.188 24.922 108.989 25.0213 108.791 25.0213C107.103 24.922 106.309 24.2269 106.209 22.6383ZM110.082 22.9362C110.28 22.7376 110.379 22.539 110.379 22.2411V20.2553C110.379 19.9574 110.28 19.7589 110.082 19.5603C109.883 19.3617 109.684 19.3617 109.287 19.3617C108.989 19.3617 108.791 19.461 108.592 19.5603C108.394 19.6596 108.294 19.8581 108.294 20.156C108.294 20.6525 108.195 21.0496 108.195 21.3475C108.195 21.6454 108.195 22.0425 108.294 22.539C108.294 22.7376 108.394 22.9362 108.592 23.1347C108.791 23.234 108.989 23.3333 109.287 23.3333C109.585 23.234 109.883 23.1347 110.082 22.9362Z" fill="white"/>
<path d="M118.025 23.0355H119.316V16.9787H118.025V15.1915H122.791V16.9787H121.5V23.0355H122.791V24.8227H118.025V23.0355Z" fill="white"/>
<path d="M124.28 17.773H126.365V18.1702C126.862 17.773 127.358 17.5745 128.053 17.5745C128.748 17.5745 129.245 17.773 129.741 18.1702C130.238 18.5674 130.436 19.0638 130.436 19.7589V24.8227H128.351V20.4539C128.351 20.0567 128.252 19.8581 128.152 19.6596C128.053 19.461 127.755 19.461 127.358 19.461C126.961 19.461 126.762 19.5603 126.564 19.6596C126.365 19.8581 126.365 20.0567 126.365 20.4539V24.8227H124.28V17.773Z" fill="white"/>
<path d="M133.018 24.3262C132.72 24.0284 132.521 23.6312 132.521 23.1348V19.461H131.528V17.7731H132.422C132.521 17.7731 132.621 17.7731 132.621 17.6738C132.621 17.5745 132.72 17.4752 132.72 17.2766C132.72 17.078 132.819 16.8794 132.918 16.5816L133.018 16.0851H134.706V17.7731H135.897V19.461H134.706V22.8369C134.706 22.9362 134.706 22.9362 134.805 23.0355C134.805 23.0355 134.904 23.1348 135.004 23.1348H136.096V24.8227H134.507C133.812 24.8227 133.415 24.6241 133.018 24.3262Z" fill="white"/>
<path d="M142.748 21.7447H138.975V22.0425C139.074 22.8369 139.571 23.234 140.564 23.234C141.06 23.234 141.557 23.1347 142.153 22.8369L142.649 24.3262C142.053 24.7234 141.358 24.922 140.564 24.922C139.67 24.922 138.876 24.7234 138.28 24.2269C137.684 23.8298 137.287 23.234 137.188 22.539C137.089 22.1418 137.089 21.7447 137.089 21.3475C137.089 20.9503 137.089 20.5532 137.188 20.156C137.287 19.461 137.585 18.766 138.082 18.3688C138.578 17.8723 139.273 17.6738 140.067 17.6738C141.06 17.6738 141.755 17.9716 142.252 18.5674C142.748 19.1631 142.947 19.9574 142.947 21.1489L142.748 21.7447ZM141.16 20.3546C141.06 19.5603 140.762 19.1631 140.067 19.1631C139.77 19.1631 139.472 19.2624 139.273 19.461C139.074 19.6596 138.975 19.9574 138.975 20.3546H141.16Z" fill="white"/>
<path d="M144.635 19.9574L143.84 18.766L145.528 17.6738L146.025 18.4681C146.124 18.5674 146.124 18.5674 146.223 18.5674C146.323 18.5674 146.323 18.5674 146.422 18.4681C147.018 17.9716 147.812 17.6738 148.706 17.6738H148.904V19.461C148.11 19.461 147.514 19.5603 147.216 19.8581C146.918 20.156 146.72 20.5532 146.72 21.0496V24.8227H144.734V19.9574H144.635Z" fill="white"/>
<path d="M149.996 17.773H152.082V18.1702C152.578 17.773 153.074 17.5745 153.769 17.5745C154.465 17.5745 154.961 17.773 155.457 18.1702C155.954 18.5674 156.152 19.0638 156.152 19.7589V24.8227H154.067V20.4539C154.067 20.0567 153.968 19.8581 153.869 19.6596C153.77 19.461 153.472 19.461 153.074 19.461C152.677 19.461 152.479 19.5603 152.28 19.6596C152.082 19.8581 152.082 20.0567 152.082 20.4539V24.8227H149.996V17.773Z" fill="white"/>
<path d="M161.514 24.3262C161.415 24.2269 161.415 24.2269 161.316 24.2269C161.316 24.2269 161.216 24.2269 161.216 24.3262C160.72 24.7234 160.124 24.922 159.528 24.922C158.833 24.922 158.337 24.7234 157.94 24.3262C157.543 23.9291 157.344 23.4326 157.344 22.8369C157.344 22.2411 157.543 21.7447 158.039 21.3475C158.535 20.9503 159.032 20.8511 159.826 20.8511H161.018V20.156C161.018 19.5603 160.621 19.2624 159.826 19.2624C159.33 19.2624 158.734 19.461 158.039 19.8582L157.443 18.2695C158.238 17.773 159.032 17.5745 159.926 17.5745C160.918 17.5745 161.614 17.773 162.11 18.2695C162.606 18.766 162.805 19.3617 162.805 20.0567V22.8369L163.5 23.9291L161.911 24.922L161.514 24.3262ZM160.72 23.1347C160.918 22.9362 161.018 22.6383 161.018 22.3404V22.1418C161.018 22.0425 161.018 22.0425 160.918 22.0425H160.72L160.223 22.2411H159.826C159.628 22.2411 159.429 22.2411 159.33 22.3404C159.231 22.4397 159.131 22.539 159.131 22.7376C159.131 22.9362 159.231 23.0355 159.33 23.234C159.528 23.3333 159.727 23.4326 159.926 23.4326C160.323 23.4326 160.521 23.3333 160.72 23.1347Z" fill="white"/>
<path d="M165.684 24.3262C165.387 24.0284 165.188 23.6312 165.188 23.1348V19.461H164.096V17.7731H164.989C165.089 17.7731 165.188 17.7731 165.188 17.6738C165.188 17.5745 165.287 17.4752 165.287 17.2766C165.287 17.078 165.387 16.8794 165.486 16.5816L165.585 16.0851H167.273V17.7731H168.465V19.461H167.273V22.8369C167.273 22.9362 167.273 22.9362 167.372 23.0355C167.372 23.0355 167.472 23.1348 167.571 23.1348H168.663V24.8227H167.074C166.379 24.8227 165.982 24.6241 165.684 24.3262Z" fill="white"/>
<path d="M170.55 19.461H169.358V17.7731H172.635V24.8227H170.55V19.461ZM170.55 15.1915H172.635V16.8794H170.55V15.1915Z" fill="white"/>
<path d="M175.117 24.3262C174.621 23.8298 174.223 23.3333 174.223 22.539C174.124 22.1418 174.124 21.7447 174.124 21.3475C174.124 20.8511 174.124 20.4539 174.223 20.0567C174.323 19.3617 174.621 18.766 175.216 18.2695C175.713 17.773 176.408 17.5745 177.301 17.5745C178.195 17.5745 178.89 17.773 179.387 18.2695C179.883 18.766 180.28 19.2624 180.379 20.0567C180.479 20.5532 180.479 20.9503 180.479 21.3475C180.479 21.7447 180.479 22.1418 180.379 22.539C180.28 23.234 179.982 23.8298 179.387 24.3262C178.89 24.8227 178.195 25.0213 177.301 25.0213C176.408 24.922 175.713 24.7234 175.117 24.3262ZM178.096 22.9362C178.294 22.7376 178.394 22.539 178.394 22.2411C178.394 21.844 178.493 21.5461 178.493 21.2482C178.493 21.0496 178.493 20.7518 178.394 20.3546C178.394 20.0567 178.294 19.7589 178.096 19.5603C177.897 19.3617 177.599 19.2624 177.301 19.2624C177.004 19.2624 176.706 19.3617 176.507 19.5603C176.309 19.7589 176.209 20.0567 176.209 20.3546V21.1489C176.209 21.5461 176.209 21.844 176.309 22.1418C176.309 22.4397 176.408 22.7376 176.606 22.9362C176.805 23.1347 177.103 23.234 177.401 23.234C177.599 23.234 177.897 23.1347 178.096 22.9362Z" fill="white"/>
<path d="M181.968 17.773H184.053V18.1702C184.55 17.773 185.046 17.5745 185.741 17.5745C186.436 17.5745 186.933 17.773 187.429 18.1702C187.926 18.5674 188.124 19.0638 188.124 19.7589V24.8227H186.039V20.4539C186.039 20.0567 185.94 19.8581 185.84 19.6596C185.741 19.461 185.443 19.461 185.046 19.461C184.649 19.461 184.45 19.5603 184.252 19.6596C184.053 19.8581 184.053 20.0567 184.053 20.4539V24.8227H181.968V17.773Z" fill="white"/>
<path d="M193.486 24.3262C193.387 24.2269 193.387 24.2269 193.287 24.2269C193.287 24.2269 193.188 24.2269 193.188 24.3262C192.692 24.7234 192.096 24.922 191.5 24.922C190.805 24.922 190.309 24.7234 189.911 24.3262C189.514 23.9291 189.316 23.4326 189.316 22.8369C189.316 22.2411 189.514 21.7447 190.011 21.3475C190.507 20.9503 191.004 20.8511 191.798 20.8511H192.989V20.156C192.989 19.5603 192.592 19.2624 191.798 19.2624C191.301 19.2624 190.706 19.461 190.011 19.8582L189.415 18.2695C190.209 17.773 191.004 17.5745 191.897 17.5745C192.89 17.5745 193.585 17.773 194.082 18.2695C194.578 18.766 194.777 19.3617 194.777 20.0567V22.8369L195.472 23.9291L193.883 24.922L193.486 24.3262ZM192.692 23.1347C192.89 22.9362 192.989 22.6383 192.989 22.3404V22.1418C192.989 22.0425 192.989 22.0425 192.89 22.0425H192.692L192.195 22.2411H191.798C191.599 22.2411 191.401 22.2411 191.301 22.3404C191.202 22.4397 191.103 22.539 191.103 22.7376C191.103 22.9362 191.202 23.0355 191.301 23.234C191.5 23.3333 191.699 23.4326 191.897 23.4326C192.294 23.4326 192.493 23.3333 192.692 23.1347Z" fill="white"/>
<path d="M197.06 24.3262C196.762 24.0284 196.564 23.6312 196.564 23.1348V14.4965H198.55V22.8369C198.55 22.9362 198.55 22.9362 198.649 23.0355C198.649 23.0355 198.748 23.1348 198.848 23.1348H199.543V24.8227H198.252C197.755 24.8227 197.358 24.6241 197.06 24.3262Z" fill="white"/>
<path d="M69.3724 41.2057C68.8759 41.1064 68.3795 40.8085 67.9823 40.5106L68.578 38.8227C68.9752 39.1206 69.3724 39.3191 69.7695 39.4184C70.0674 39.5177 70.4646 39.617 70.961 39.617C71.3582 39.617 71.7553 39.5177 71.9539 39.3191C72.2518 39.1206 72.3511 38.8227 72.3511 38.5248C72.3511 38.2269 72.2518 37.9291 72.0532 37.7305C71.8546 37.5319 71.5568 37.4326 71.2589 37.3333L70.7624 37.234C69.9681 37.1347 69.2731 36.8369 68.8759 36.4397C68.3795 35.9433 68.1809 35.3475 68.1809 34.5532C68.1809 33.6596 68.4788 32.8652 69.0745 32.3688C69.6702 31.8723 70.5639 31.5745 71.6561 31.5745C72.2518 31.5745 72.7483 31.6738 73.1454 31.773C73.6419 31.8723 73.9397 32.0709 74.3369 32.3688L73.7412 33.9574C73.1454 33.6596 72.4504 33.461 71.7554 33.461C71.2589 33.461 70.8617 33.5603 70.6631 33.7589C70.4646 33.9574 70.266 34.156 70.266 34.4539C70.266 34.9504 70.5639 35.2482 71.1596 35.3475L71.7554 35.4468C72.649 35.5461 73.344 35.844 73.8405 36.3404C74.3369 36.8369 74.5355 37.5319 74.5355 38.4255C74.5355 39.4184 74.2376 40.2128 73.6419 40.7092C73.0461 41.2057 72.2518 41.5035 71.0603 41.5035C70.3653 41.4043 69.8688 41.4043 69.3724 41.2057Z" fill="white"/>
<path d="M76.5213 40.8085C76.0248 40.3121 75.6277 39.8156 75.5284 39.0213C75.4291 38.6241 75.4291 38.1277 75.4291 37.8298C75.4291 37.3333 75.4291 36.9362 75.5284 36.6383C75.6277 35.9433 75.9255 35.3475 76.5213 34.8511C77.0177 34.4539 77.8121 34.156 78.6064 34.156C79.0035 34.156 79.4007 34.2553 79.7979 34.3546C80.195 34.4539 80.4929 34.6525 80.6915 34.8511L80.0957 36.3404C79.8972 36.1418 79.6986 36.0426 79.4007 35.9433C79.2021 35.844 78.9043 35.844 78.6064 35.844C78.2092 35.844 77.9113 35.9433 77.7128 36.1419C77.5142 36.3404 77.3156 36.539 77.3156 36.8369V38.8227C77.3156 39.1206 77.4149 39.3192 77.7128 39.5177C77.9113 39.7163 78.3085 39.8156 78.6064 39.8156C79.1028 39.8156 79.5993 39.7163 79.9965 39.4184L80.4929 40.9078C79.8972 41.4043 79.2021 41.6028 78.4078 41.6028C77.8121 41.5036 77.117 41.2057 76.5213 40.8085Z" fill="white"/>
<path d="M82.0816 30.9787H84.0674V34.5532C84.5638 34.2553 85.1596 34.156 85.7553 34.156C86.4504 34.156 86.9468 34.3546 87.4433 34.7518C87.9397 35.1489 88.1383 35.6454 88.1383 36.3404V41.4043H86.0532V37.234C86.0532 36.8369 85.9539 36.539 85.8546 36.3404C85.7553 36.1418 85.4575 36.0426 85.0603 36.0426C84.6631 36.0426 84.4646 36.1418 84.266 36.3404C84.0674 36.539 84.0674 36.8369 84.0674 37.234V41.4043H82.0816V30.9787Z" fill="white"/>
<path d="M90.6206 40.8085C90.1241 40.3121 89.727 39.8156 89.727 39.0213C89.6277 38.6241 89.6277 38.2269 89.6277 37.8298C89.6277 37.3333 89.6277 36.9362 89.727 36.539C89.8263 35.844 90.1241 35.2482 90.7199 34.7518C91.2163 34.2553 91.9114 34.0567 92.805 34.0567C93.6986 34.0567 94.3936 34.2553 94.8901 34.7518C95.3865 35.2482 95.7837 35.7447 95.883 36.539C95.9823 37.0355 95.9823 37.4326 95.9823 37.8298C95.9823 38.2269 95.9823 38.6241 95.883 39.0213C95.7837 39.7163 95.4858 40.3121 94.8901 40.8085C94.3936 41.305 93.6986 41.5035 92.805 41.5035C91.8121 41.5035 91.117 41.2057 90.6206 40.8085ZM93.5 39.5177C93.6986 39.3191 93.7979 39.1206 93.7979 38.8227C93.7979 38.4255 93.8972 38.1277 93.8972 37.8298C93.8972 37.6312 93.8972 37.3333 93.7979 36.9362C93.7979 36.6383 93.6986 36.3404 93.5 36.1418C93.3014 35.9433 93.0036 35.844 92.7057 35.844C92.4078 35.844 92.11 35.9433 91.9114 36.1418C91.7128 36.3404 91.6135 36.6383 91.6135 36.9362V37.7305C91.6135 38.1277 91.6135 38.4255 91.7128 38.7234C91.7128 39.0213 91.8121 39.3191 92.0107 39.5177C92.2092 39.7163 92.5071 39.8156 92.805 39.8156C93.1029 39.8156 93.3014 39.7163 93.5 39.5177Z" fill="white"/>
<path d="M98.266 40.8085C97.7695 40.3121 97.3724 39.8156 97.3724 39.0213C97.2731 38.6241 97.2731 38.2269 97.2731 37.8298C97.2731 37.3333 97.2731 36.9362 97.3724 36.539C97.4717 35.844 97.7695 35.2482 98.3653 34.7518C98.8617 34.2553 99.5568 34.0567 100.45 34.0567C101.344 34.0567 102.039 34.2553 102.535 34.7518C103.032 35.2482 103.429 35.7447 103.528 36.539C103.628 37.0355 103.628 37.4326 103.628 37.8298C103.628 38.2269 103.628 38.6241 103.528 39.0213C103.429 39.7163 103.131 40.3121 102.535 40.8085C102.039 41.305 101.344 41.5035 100.45 41.5035C99.5568 41.5035 98.8617 41.2057 98.266 40.8085ZM101.245 39.5177C101.443 39.3191 101.543 39.1206 101.543 38.8227C101.543 38.4255 101.642 38.1277 101.642 37.8298C101.642 37.6312 101.642 37.3333 101.543 36.9362C101.543 36.6383 101.443 36.3404 101.245 36.1418C101.046 35.9433 100.748 35.844 100.45 35.844C100.153 35.844 99.8546 35.9433 99.6561 36.1418C99.4575 36.3404 99.3582 36.6383 99.3582 36.9362V37.7305C99.3582 38.1277 99.3582 38.4255 99.4575 38.7234C99.4575 39.0213 99.5568 39.3191 99.7553 39.5177C99.9539 39.7163 100.252 39.8156 100.55 39.8156C100.748 39.8156 101.046 39.7163 101.245 39.5177Z" fill="white"/>
<path d="M105.514 40.8085C105.216 40.5106 105.018 40.1135 105.018 39.617V30.9787H107.004V39.3192C107.004 39.4184 107.004 39.4184 107.103 39.5177C107.103 39.5177 107.202 39.617 107.301 39.617H107.996V41.4043H106.706C106.309 41.305 105.911 41.1064 105.514 40.8085Z" fill="white"/>
<path d="M113.557 31.6738H115.344L117.131 35.0497C117.131 35.1489 117.231 35.1489 117.231 35.1489C117.33 35.1489 117.33 35.1489 117.33 35.0497L119.117 31.6738H120.904V41.305H118.819V37.3333L119.018 36.1419V36.0426H118.918C118.918 36.0426 118.819 36.0426 118.819 36.1419L117.528 38.227H116.833L115.642 36.1419L115.543 36.0426H115.443V36.1419L115.642 37.3333V41.305H113.557V31.6738Z" fill="white"/>
<path d="M126.564 40.9078C126.465 40.8085 126.465 40.8085 126.365 40.8085C126.365 40.8085 126.266 40.8085 126.266 40.9078C125.769 41.305 125.174 41.5036 124.578 41.5036C123.883 41.5036 123.387 41.305 122.989 40.9078C122.592 40.5106 122.394 40.0142 122.394 39.4184C122.394 38.8227 122.592 38.3262 123.089 37.9291C123.585 37.5319 124.082 37.4326 124.876 37.4326H126.067V36.7376C126.067 36.1419 125.67 35.844 124.876 35.844C124.379 35.844 123.784 36.0426 123.089 36.4397L122.493 34.8511C123.287 34.3546 124.082 34.156 124.975 34.156C125.968 34.156 126.663 34.3546 127.16 34.8511C127.656 35.3475 127.855 35.9433 127.855 36.6383V39.4184L128.55 40.5106L126.961 41.5036L126.564 40.9078ZM125.769 39.7163C125.968 39.5177 126.067 39.2199 126.067 38.922V38.7234C126.067 38.6241 126.067 38.6241 125.968 38.6241H125.769L125.273 38.8227H124.876C124.677 38.8227 124.479 38.8227 124.379 38.922C124.28 39.0213 124.181 39.1206 124.181 39.3192C124.181 39.5177 124.28 39.617 124.379 39.8156C124.578 39.9149 124.777 40.0142 124.975 40.0142C125.273 40.0142 125.571 39.9149 125.769 39.7163Z" fill="white"/>
<path d="M130.039 40.8085C129.741 40.5106 129.543 40.1135 129.543 39.617V30.9787H131.528V39.3192C131.528 39.4184 131.528 39.4184 131.628 39.5177C131.628 39.5177 131.727 39.617 131.826 39.617H132.521V41.4043H131.231C130.734 41.305 130.337 41.1064 130.039 40.8085Z" fill="white"/>
<path d="M133.614 39.2199C133.614 38.6241 133.514 38.1277 133.514 37.8298C133.514 37.3333 133.514 36.9362 133.614 36.4397C133.713 35.7447 133.911 35.1489 134.408 34.7518C134.805 34.3546 135.5 34.156 136.294 34.156C136.592 34.156 136.89 34.156 137.188 34.2553C137.486 34.3546 137.684 34.4539 137.883 34.5532V30.9787H139.968V41.305H137.883V41.0071C137.883 40.9078 137.883 40.8085 137.784 40.8085C137.784 40.8085 137.684 40.8085 137.585 40.9078L136.692 41.4043C136.592 41.4043 136.394 41.5036 136.195 41.5036C134.606 41.4043 133.713 40.7092 133.614 39.2199ZM137.486 39.5177C137.684 39.3192 137.784 39.1206 137.784 38.8227V36.8369C137.784 36.539 137.684 36.3404 137.486 36.1419C137.287 35.9433 137.089 35.9433 136.692 35.9433C136.394 35.9433 136.195 36.0426 135.996 36.1419C135.798 36.2411 135.699 36.4397 135.699 36.7376C135.699 37.234 135.599 37.6312 135.599 37.9291C135.599 38.227 135.599 38.6241 135.699 39.1206C135.699 39.3192 135.798 39.5177 135.996 39.7163C136.195 39.8156 136.394 39.9149 136.692 39.9149C136.989 39.7163 137.287 39.617 137.486 39.5177Z" fill="white"/>
<path d="M142.053 36.0426H140.862V34.3546H144.138V41.4043H142.053V36.0426ZM142.053 31.6738H144.138V33.3617H142.053V31.6738Z" fill="white"/>
<path d="M145.231 34.2553H147.216L148.11 38.6241L148.209 39.7163C148.209 39.8156 148.309 39.8156 148.309 39.8156C148.408 39.8156 148.408 39.8156 148.408 39.7163L148.507 38.6241L149.401 34.2553H151.387L149.699 41.305H146.72L145.231 34.2553Z" fill="white"/>
<path d="M157.84 38.3262H154.067V38.6241C154.167 39.4184 154.663 39.8156 155.656 39.8156C156.152 39.8156 156.649 39.7163 157.245 39.4184L157.741 40.9078C157.145 41.305 156.45 41.5036 155.656 41.5036C154.762 41.5036 153.968 41.305 153.372 40.8085C152.777 40.4114 152.379 39.8156 152.28 39.1206C152.181 38.7234 152.181 38.3262 152.181 37.9291C152.181 37.5319 152.181 37.1348 152.28 36.7376C152.379 36.0426 152.677 35.3475 153.174 34.9504C153.67 34.4539 154.365 34.2553 155.16 34.2553C156.152 34.2553 156.848 34.5532 157.344 35.1489C157.84 35.7447 158.039 36.539 158.039 37.7305L157.84 38.3262ZM156.252 36.9362C156.152 36.1419 155.855 35.7447 155.16 35.7447C154.862 35.7447 154.564 35.844 154.365 36.0426C154.167 36.2411 154.067 36.539 154.067 36.9362H156.252Z" fill="white"/>
<path d="M160.422 41.305C160.025 41.2057 159.628 41.0071 159.131 40.7092L159.727 39.2199C160.124 39.5177 160.521 39.7163 160.819 39.7163C161.117 39.8156 161.415 39.8156 161.911 39.8156C162.209 39.8156 162.507 39.7163 162.606 39.617C162.805 39.5177 162.805 39.3191 162.805 39.1206C162.805 38.8227 162.606 38.6241 162.209 38.5248H161.514C160.819 38.5248 160.223 38.3262 159.826 37.9291C159.429 37.6312 159.231 37.0355 159.231 36.4397C159.231 35.6454 159.528 35.1489 160.025 34.6525C160.521 34.2553 161.216 34.0567 162.011 34.0567C162.507 34.0567 163.004 34.0567 163.401 34.156C163.798 34.2553 164.195 34.4539 164.493 34.6525L163.897 36.1418C163.599 35.9433 163.301 35.844 163.004 35.7447C162.706 35.6454 162.408 35.6454 162.011 35.6454C161.713 35.6454 161.415 35.7447 161.216 35.844C161.018 35.9433 160.918 36.1418 160.918 36.2411C160.918 36.539 161.117 36.7376 161.514 36.7376H162.309C163.004 36.7376 163.599 36.9362 163.996 37.3333C164.394 37.7305 164.592 38.2269 164.592 38.922C164.592 39.7163 164.394 40.3121 163.897 40.7092C163.401 41.1064 162.706 41.305 161.812 41.305C161.216 41.5035 160.819 41.4042 160.422 41.305Z" fill="white"/>
</g>
<defs>
<clipPath id="clip0_2_1308">
<rect width="200" height="56" fill="white" transform="translate(0.5)"/>
</clipPath>
</defs>
</svg>
