<svg width="20" height="16" viewBox="0 0 20 16" fill="none" xmlns="http://www.w3.org/2000/svg">
<g clip-path="url(#clip0_2_1267)">
<path d="M1 8C1 6.14348 1.7375 4.36301 3.05025 3.05025C4.36301 1.7375 6.14348 1 8 1H12C13.8565 1 15.637 1.7375 16.9497 3.05025C18.2625 4.36301 19 6.14348 19 8C19 9.85652 18.2625 11.637 16.9497 12.9497C15.637 14.2625 13.8565 15 12 15H8C6.14348 15 4.36301 14.2625 3.05025 12.9497C1.7375 11.637 1 9.85652 1 8Z" fill="#389AFC"/>
<path fill-rule="evenodd" clip-rule="evenodd" d="M8 0H12C14.1217 0 16.1566 0.842855 17.6569 2.34315C19.1571 3.84344 20 5.87827 20 8C20 10.1217 19.1571 12.1566 17.6569 13.6569C16.1566 15.1571 14.1217 16 12 16H8C5.87827 16 3.84344 15.1571 2.34315 13.6569C0.842855 12.1566 0 10.1217 0 8C0 5.87827 0.842855 3.84344 2.34315 2.34315C3.84344 0.842855 5.87827 0 8 0ZM8 1C6.14348 1 4.36301 1.7375 3.05025 3.05025C1.7375 4.36301 1 6.14348 1 8C1 9.85652 1.7375 11.637 3.05025 12.9497C4.36301 14.2625 6.14348 15 8 15H12C13.8565 15 15.637 14.2625 16.9497 12.9497C18.2625 11.637 19 9.85652 19 8C19 6.14348 18.2625 4.36301 16.9497 3.05025C15.637 1.7375 13.8565 1 12 1H8Z" fill="white"/>
<path fill-rule="evenodd" clip-rule="evenodd" d="M8.10601 3.54204C8.23862 3.54204 8.36579 3.59472 8.45956 3.68849C8.55333 3.78225 8.60601 3.90943 8.60601 4.04204V5.52004H9.87401C9.94301 5.52009 10.0112 5.53443 10.0744 5.56214C10.1376 5.58986 10.1944 5.63035 10.2412 5.68107C10.2879 5.73179 10.3237 5.79165 10.3462 5.85687C10.3688 5.92209 10.3775 5.99126 10.372 6.06004C10.2605 7.29058 9.741 8.44857 8.89601 9.35004C9.12001 9.43404 9.36501 9.48004 9.62101 9.48004C9.75362 9.48004 9.88079 9.53272 9.97456 9.62649C10.0683 9.72025 10.121 9.84743 10.121 9.98004C10.121 10.1126 10.0683 10.2398 9.97456 10.3336C9.88079 10.4274 9.75362 10.48 9.62101 10.48C9.05101 10.48 8.51501 10.324 8.05801 10.053C7.39889 10.492 6.62493 10.7268 5.83301 10.728C5.7004 10.728 5.57322 10.6754 5.47945 10.5816C5.38569 10.4878 5.33301 10.3606 5.33301 10.228C5.33301 10.0954 5.38569 9.96825 5.47945 9.87449C5.57322 9.78072 5.7004 9.72804 5.83301 9.72804C6.34801 9.72804 6.82801 9.59604 7.25901 9.36504C6.82945 8.84082 6.59512 8.18378 6.59601 7.50604C6.59601 7.37343 6.64869 7.24625 6.74245 7.15249C6.83622 7.05872 6.9634 7.00604 7.09601 7.00604C7.22862 7.00604 7.35579 7.05872 7.44956 7.15249C7.54333 7.24625 7.59601 7.37343 7.59601 7.50604C7.59601 7.98404 7.77101 8.42604 8.06401 8.76904C8.13529 8.69958 8.20401 8.62753 8.27001 8.55304C8.77801 7.97804 9.13501 7.25304 9.29401 6.52204H5.83401C5.7014 6.52204 5.57422 6.46936 5.48045 6.37559C5.38669 6.28182 5.33401 6.15465 5.33401 6.02204C5.33401 5.88943 5.38669 5.76225 5.48045 5.66849C5.57422 5.57472 5.7014 5.52204 5.83401 5.52204H7.60601V4.04004C7.60601 3.90743 7.65869 3.78025 7.75245 3.68649C7.84622 3.59272 7.9734 3.54004 8.10601 3.54004V3.54204ZM12.399 6.51004C12.502 6.51023 12.6024 6.54223 12.6866 6.60165C12.7707 6.66108 12.8344 6.74503 12.869 6.84204L14.637 11.79C14.677 11.9137 14.6673 12.048 14.61 12.1646C14.5527 12.2812 14.4522 12.3709 14.3299 12.4148C14.2076 12.4586 14.073 12.453 13.9547 12.3993C13.8363 12.3456 13.7436 12.248 13.696 12.127L13.461 11.469H11.337L11.102 12.127C11.0573 12.252 10.9648 12.354 10.8449 12.4107C10.725 12.4675 10.5874 12.4742 10.4625 12.4295C10.3376 12.3848 10.2355 12.2924 10.1788 12.1724C10.1221 12.0525 10.1153 11.915 10.16 11.79L11.928 6.84204C11.9626 6.74503 12.0263 6.66108 12.1105 6.60165C12.1946 6.54223 12.295 6.51023 12.398 6.51004H12.399ZM11.694 10.469H13.104L12.399 8.49704L11.694 10.469Z" fill="white"/>
</g>
<defs>
<clipPath id="clip0_2_1267">
<rect width="20" height="16" fill="white"/>
</clipPath>
</defs>
</svg>
